<svg width="135" height="135" viewBox="0 0 135 135" fill="none" xmlns="http://www.w3.org/2000/svg">
    <style>
        .color {
            fill: #dcd9de;
        }
    </style>
    <path fill-rule="evenodd" clip-rule="evenodd" d="M34 0H0V34H34V0ZM27 7H7V27H27V7Z" class="color"/>
    <rect x="14" y="14" width="6" height="6" class="color"/>
    <path fill-rule="evenodd" clip-rule="evenodd" d="M135 0H101V34H135V0ZM128 7H108V27H128V7Z" class="color"/>
    <path fill-rule="evenodd" clip-rule="evenodd" d="M34 101H0V135H34V101ZM27 108H7V128H27V108Z" class="color"/>
    <path fill-rule="evenodd" clip-rule="evenodd" d="M134 101H100V135H134V101ZM127 108H107V128H127V108Z" class="color"/>
    <path d="M3.06699 81.8544V48.8252H11.7961V81.8544H3.06699ZM15.3552 56.8466V48.8252H44.8455V56.8466H34.4649V81.8544H25.7358V56.8466H15.3552ZM47.6545 81.8544V48.8252H55.6758V60.6214H56.1477C56.5881 59.8664 57.1543 59.2058 57.8463 58.6396C59.4506 57.287 61.3222 56.6107 63.4613 56.6107C66.3552 56.6107 68.6044 57.4915 70.2086 59.253C71.8444 60.9831 72.6622 63.4839 72.6622 66.7553V81.8544H64.6409V67.935C64.6409 66.5194 64.2634 65.4184 63.5085 64.632C62.7535 63.8456 61.7154 63.4524 60.3943 63.4524C59.0417 63.4524 57.9092 63.9557 56.997 64.9623C56.1162 65.9375 55.6758 67.2429 55.6758 68.8786V81.8544H47.6545ZM77.1448 72.4175V57.3184H85.1661V71.2379C85.1661 72.6534 85.5436 73.7544 86.2985 74.5408C87.0535 75.3272 88.0916 75.7204 89.4127 75.7204C90.7653 75.7204 91.882 75.2328 92.7628 74.2577C93.6751 73.2511 94.1312 71.9299 94.1312 70.2942V57.3184H102.153V81.8544H94.1312V78.5515H93.6593C93.2504 79.3379 92.6842 80.0142 91.9607 80.5804C90.3879 81.9016 88.5162 82.5621 86.3457 82.5621C83.4518 82.5621 81.1869 81.6971 79.5512 79.967C77.9469 78.2054 77.1448 75.6889 77.1448 72.4175ZM106.865 81.8544V48.8252H114.887V60.6214H115.359C115.799 59.8979 116.397 59.2373 117.152 58.6396C118.882 57.287 120.722 56.6107 122.672 56.6107C125.692 56.6107 128.256 57.806 130.363 60.1967C132.471 62.5559 133.525 65.6858 133.525 69.5864C133.525 73.487 132.471 76.6326 130.363 79.0233C128.256 81.3825 125.692 82.5621 122.672 82.5621C120.69 82.5621 118.85 81.9016 117.152 80.5804C116.397 79.9827 115.799 79.3064 115.359 78.5515H114.887V81.8544H106.865ZM116.302 65.0567C115.359 66.1262 114.887 67.6361 114.887 69.5864C114.887 71.5367 115.359 73.0466 116.302 74.1161C117.246 75.1856 118.504 75.7204 120.077 75.7204C121.65 75.7204 122.908 75.1856 123.852 74.1161C124.796 73.0466 125.267 71.5367 125.267 69.5864C125.267 67.6361 124.796 66.1262 123.852 65.0567C122.908 63.9872 121.65 63.4524 120.077 63.4524C118.504 63.4524 117.246 63.9872 116.302 65.0567Z" class="color"/>
</svg>
